<svg xmlns="http://www.w3.org/2000/svg" version="1.1" xmlns:xlink="http://www.w3.org/1999/xlink" xmlns:svgjs="http://svgjs.com/svgjs" width="1440" height="560" preserveAspectRatio="none" viewBox="0 0 1440 560"><g mask="url(&quot;#SvgjsMask1039&quot;)" fill="none"><rect width="1440" height="560" x="0" y="0" fill="rgba(19, 77, 232, 1)"></rect><path d="M919.8435159887131 94.6607188691969L900.9015092469502 229.44010012073417 1035.6808904984875 248.38210686249707 1054.6228972402503 113.6027256109598z" fill="rgba(26, 55, 88, 0.86)" class="triangle-float2"></path><path d="M805.1459491017384 497.3836562237205L909.0402600265077 504.6486541657574 916.3052579685447 400.75434324098813 812.4109470437754 393.4893452989512z" fill="rgba(26, 55, 88, 0.86)" class="triangle-float3"></path><path d="M655.598,517.526C687.369,514.674,712.045,493.67,728.951,466.62C747.253,437.337,762.806,402.214,746.785,371.623C729.926,339.431,691.904,325.015,655.598,326.556C621.874,327.987,595.192,350.466,576.901,378.834C556.451,410.55,536.61,449.395,555.234,482.216C573.993,515.276,617.739,520.925,655.598,517.526" fill="rgba(26, 55, 88, 0.86)" class="triangle-float1"></path><path d="M464.242,330.889C491.44,332.021,516.404,315.424,529.502,291.56C542.134,268.547,539.218,240.908,526.12,218.157C512.991,195.352,490.53,177.032,464.242,178.209C439.415,179.321,422.769,201.267,411.275,223.301C400.818,243.348,397.771,266.208,407.758,286.494C419.095,309.522,438.597,329.822,464.242,330.889" fill="rgba(26, 55, 88, 0.86)" class="triangle-float2"></path><path d="M41.802262839738844-61.83947907060319L-19.12178223904843-23.76991050652674 68.44459314645988 48.58137282961593z" fill="rgba(26, 55, 88, 0.86)" class="triangle-float1"></path><path d="M1076.177,283.303C1123.393,280.762,1157.933,241.994,1178.575,199.453C1196.498,162.516,1190.576,121.58,1172.547,84.694C1151.345,41.317,1124.269,-5.777,1076.177,-10.045C1022.426,-14.815,971.057,17.34,944.801,64.484C919.189,110.471,925.636,166.476,952.731,211.605C978.984,255.331,1025.249,286.043,1076.177,283.303" fill="rgba(26, 55, 88, 0.86)" class="triangle-float3"></path><path d="M861.79 265.38 a108.29 108.29 0 1 0 216.58 0 a108.29 108.29 0 1 0 -216.58 0z" fill="rgba(26, 55, 88, 0.86)" class="triangle-float1"></path><path d="M1407.9736385196372 400.50887088043635L1418.3077337193997 302.1865228452642 1265.6571640667603 335.84655406320667z" fill="rgba(26, 55, 88, 0.86)" class="triangle-float3"></path><path d="M391.67795765459255 308.4720781310373L385.843940570257 141.40768724714624 218.77954968636595 147.2417043314818 224.6135667707015 314.3060952153728z" fill="rgba(26, 55, 88, 0.86)" class="triangle-float3"></path><path d="M172.425,389.544C205.85,390.27,243.744,389.027,261.436,360.659C279.805,331.206,267.583,294.407,250.663,264.098C233.183,232.785,208.284,200.76,172.425,201.209C137.038,201.652,114.084,234.747,97.507,266.015C82.239,294.815,72.964,329.061,89.868,356.933C106.313,384.049,140.719,388.856,172.425,389.544" fill="rgba(26, 55, 88, 0.86)" class="triangle-float2"></path></g><defs><mask id="SvgjsMask1039"><rect width="1440" height="560" fill="#ffffff"></rect></mask><style>
            @keyframes float1 {
                0%{transform: translate(0, 0)}
                50%{transform: translate(-10px, 0)}
                100%{transform: translate(0, 0)}
            }

            .triangle-float1 {
                animation: float1 5s infinite;
            }

            @keyframes float2 {
                0%{transform: translate(0, 0)}
                50%{transform: translate(-5px, -5px)}
                100%{transform: translate(0, 0)}
            }

            .triangle-float2 {
                animation: float2 4s infinite;
            }

            @keyframes float3 {
                0%{transform: translate(0, 0)}
                50%{transform: translate(0, -10px)}
                100%{transform: translate(0, 0)}
            }

            .triangle-float3 {
                animation: float3 6s infinite;
            }
        </style></defs></svg>